PathFileType	4	(X/Y/Z)	Patient4_TMGait_0pt8_01_left_18.trc.trc
DataRate	CameraRate	NumFrames	NumMarkers	Units	OrigDataRate	OrigDataStartFrame	OrigNumFrames
89.171974522293	89.171974522293	4	33	mm	89.171974522293	124	       141
Frame#	Time	Sacral			L.Shoulder			Chest			R.Shoulder			Neck			R.ASIS			L.ASIS			R.Thigh.Superior			R.Thigh.Lateral			R.Thigh.Inferior			R.Patella			L.Thigh.Superior			L.Thigh.Lateral			L.Thigh.Inferior			L.Patella			L.Shank.Superior			L.Shank.Lateral			L.Shank.Inferior			R.Shank.Superior			R.Shank.Lateral			R.Shank.Inferior			R.Heel			R.Midfoot.Superior			R.Midfoot.Lateral			R.Toe			L.Heel			L.Midfoot.Lateral			L.Midfoot.Superior			L.Toe			L.Elbow			L.Wrist			R.Elbow			R.Wrist			
		X1	Y1	Z1	X2	Y2	Z2	X3	Y3	Z3	X4	Y4	Z4	X5	Y5	Z5	X6	Y6	Z6	X7	Y7	Z7	X8	Y8	Z8	X9	Y9	Z9	X10	Y10	Z10	X11	Y11	Z11	X12	Y12	Z12	X13	Y13	Z13	X14	Y14	Z14	X15	Y15	Z15	X16	Y16	Z16	X17	Y17	Z17	X18	Y18	Z18	X19	Y19	Z19	X20	Y20	Z20	X21	Y21	Z21	X22	Y22	Z22	X23	Y23	Z23	X24	Y24	Z24	X25	Y25	Z25	X26	Y26	Z26	X27	Y27	Z27	X28	Y28	Z28	X29	Y29	Z29	X30	Y30	Z30	X31	Y31	Z31	X32	Y32	Z32	X33	Y33	Z33	

124	20.789357142857	916.348786763062	997.501838816574	508.685275400854	1058.351161473384	1419.105183269393	303.246668248147	1186.920978276532	1354.124403507538	446.439157506042	1131.198917294662	1432.355482143460	628.498994515204	1073.782361771851	1480.431791085176	457.455812260342	1146.900481035552	926.721441175345	604.384775070627	1112.274158308527	944.150771983064	330.007370516411	1130.209475896926	711.064483766537	581.440394912078	1018.617425627513	623.332673383395	643.529998397030	1073.244290404458	553.867303450733	563.535507359951	1048.216603271610	468.206401696169	567.558290726786	1191.845893365670	766.275914527406	367.146535161700	1144.888872500885	634.433255743268	290.246631469719	1250.494953567139	580.164810065093	351.158923781694	1277.835980223819	516.208881535249	349.142109021825	1265.556478686752	443.309329316003	338.831348152470	1206.117182709047	308.770809311242	293.196075154985	1300.621706270788	216.731364875212	347.843930675307	1003.033985175892	388.560110857283	574.070126352636	912.756246959681	300.023442456066	635.008968865916	934.621295098342	199.439811949171	571.084002541588	777.598527189612	47.462240301422	534.927613732922	947.399085282705	96.404252693786	580.171451798539	855.771874051473	38.441719120737	614.311984132240	1064.243294693222	39.734744276408	617.368976244879	1228.388329020112	38.478917562600	391.095254286997	1300.851735419420	43.565835860028	309.637076462765	1369.779995917543	121.282984719910	329.452834224231	1503.700262382015	93.461462096533	301.501151077547	885.876321966912	1111.791392902638	231.868505045982	800.376574384598	868.491384189321	253.362993046227	1339.996355567385	1176.308618355241	733.779450078572	1538.010355749674	1308.465758421886	652.621879920350	
125	20.800571428571	917.096206856961	995.982589129757	505.556947627616	1059.465188182917	1417.727964847477	301.004984974376	1187.339838520727	1353.110324774706	444.993518264754	1130.216456405220	1431.375490609149	626.569781720596	1073.825992850609	1479.094456074711	455.311352477179	1147.241674565184	925.308760294550	602.982390499579	1114.310246421320	942.773096215398	328.570531138205	1130.407109684066	709.397900286472	580.186557712616	1018.257322364360	621.952988783369	641.789630307329	1073.153084277674	551.999563500865	562.238599095549	1047.369170417843	465.580586974176	566.168847849537	1193.722271466620	764.131074305397	365.952332960789	1145.016101293241	632.240947586309	290.386668280601	1250.564820083076	577.925982631141	351.265753603440	1276.423961457106	512.876018832130	350.103067351664	1263.679027224617	439.866215391479	339.683500082261	1202.533549986525	305.955603355786	294.585924989693	1295.491721875548	212.907810358493	349.865222169244	1000.448835883262	386.627888265153	572.738816711535	908.422266144316	300.103854536736	634.203384577871	928.165199108020	198.924000880859	570.626034942887	768.665948441033	48.866172321160	535.220616978639	938.821627058050	96.558721097374	580.268644606816	846.885526398069	39.036367415175	614.448600809390	1055.351396090050	39.358744766380	617.538869334621	1219.288990796276	37.705776616316	393.359882265547	1291.565371824792	41.185307345652	311.562909826917	1363.138656464435	115.964454811807	332.179371834739	1496.161750005061	83.606241798350	303.475599300247	884.984607386127	1112.073308441895	230.858268076023	794.801380640567	870.644266671769	253.177309898704	1340.881878316775	1177.126142139276	730.739089983857	1533.755481449638	1315.397264974846	648.856015165963	
126	20.811785714286	917.791020553008	994.559245745400	502.370964042026	1060.690410831612	1416.414612395084	298.637856693943	1187.815996686799	1352.202970444732	443.495793824769	1129.226358333351	1430.502655111802	624.607386837851	1073.956969157237	1477.902846936512	453.000880113166	1147.605331143976	924.040047501299	601.466161254700	1116.300895160305	941.629049177849	327.100822194526	1130.897050064709	707.884713469126	578.847149799253	1018.303793756541	620.599106230905	639.919425083131	1073.621584437670	550.179332116175	560.872797363505	1047.158259344876	462.850892553213	564.812471502592	1195.618870834752	762.296983724817	364.670841851929	1145.475532369639	630.568214391140	290.140627330214	1250.897531685019	576.153050177396	351.200285467737	1275.294477538694	510.047177081252	350.816801701074	1262.129123105699	436.899155427294	340.250177831686	1199.433707479610	303.691913738428	295.232608091329	1290.503878340830	209.524567970243	351.416793362121	998.289040154634	384.730147650092	571.427002220606	904.386559636919	300.413734077190	633.368350274236	921.940499172071	198.609873467476	570.208371564909	759.786604278034	50.751645142393	535.554004805278	930.426036668473	96.797129313176	580.452207426838	838.037993069470	39.851812414672	614.579061928766	1046.485415721447	38.980601183625	617.700571479397	1209.965993436811	37.322963898756	394.897307343028	1282.237654881328	39.235920494059	312.915443702665	1356.377509381299	111.119984277284	334.488222859380	1488.522348822668	74.295976136192	305.363747446789	884.994121009979	1111.805157435257	229.553337871091	790.812115477729	872.048137201036	252.515743515955	1340.997513021789	1177.224816908430	728.034830066045	1528.999616958999	1320.911104309374	645.446111311199	
127	20.823000000000	918.402646991811	993.312094454770	499.181092117430	1061.997845869929	1415.241060650209	296.189257102625	1188.341600678244	1351.453262923885	441.956273353831	1128.279624785447	1429.794319388863	622.635540201642	1074.192170244755	1476.926399048519	450.563535943992	1147.956946567743	922.976943494951	599.822806135722	1118.169128453492	940.797293679947	325.575706414187	1131.639231146434	706.597610564053	577.378800984255	1018.778294288479	619.322849913747	637.932671860094	1074.668893674655	548.478531358447	559.432066455538	1047.640271714471	460.079557701975	563.551533241793	1197.484010072357	760.909041146621	363.305471887615	1146.308535021354	629.517609078382	289.460383544689	1251.485677853842	574.924068836030	350.908202141484	1274.495642297336	507.845514218991	351.200373024166	1260.946621496682	434.510544184625	340.503246199805	1196.884437207672	302.076691665542	295.113652701095	1285.727566866547	206.709303039413	352.475911141895	996.603570759342	382.937824578905	570.196940222355	900.694837329414	301.036820718668	632.524219719238	916.012726897819	198.577738514324	569.864953090637	751.018670140372	53.248045092058	535.923513739712	922.275974968971	97.129407154135	580.730432340217	829.261821246136	40.960601081686	614.697014375453	1037.641602509434	38.618061076685	617.841251715940	1200.686215999131	37.272727932221	395.762237673812	1273.092362597799	37.766182984625	313.724816172222	1349.551548176685	106.987597131839	336.305991703262	1480.876403099207	66.095198316429	307.047826544518	885.890810093921	1111.027690113382	227.934079096176	788.477212313765	872.658593355375	251.349075351601	1340.329329352872	1176.577218270228	725.711008291369	1523.800016069946	1325.006829300412	642.405287600281	
